<svg xmlns="http://www.w3.org/2000/svg" xmlns:xlink="http://www.w3.org/1999/xlink" width="2510.879" height="1895.634" viewBox="0 0 2510.879 1895.634"><defs><clipPath id="a"><rect width="552.142" height="120.142" fill="none"/></clipPath><clipPath id="b"><rect width="451.413" height="480.969" fill="none"/></clipPath><clipPath id="c"><rect width="343.593" height="355.449" fill="none"/></clipPath><clipPath id="d"><rect width="758" height="903" fill="none"/></clipPath></defs><g transform="translate(288.487 433.634)"><g transform="translate(90 -6)"><g transform="translate(1368)" clip-path="url(#a)"><g transform="translate(-900.929 -100.929)"><rect width="10" height="10" transform="translate(908 100.929) rotate(45)" fill="#19a99f"/></g><g transform="translate(-870.929 -100.929)"><rect width="10" height="10" transform="translate(908 100.929) rotate(45)" fill="#19a99f"/></g><g transform="translate(-840.929 -100.929)"><rect width="10" height="10" transform="translate(908 100.929) rotate(45)" fill="#19a99f"/></g><g transform="translate(-810.929 -100.929)"><rect width="10" height="10" transform="translate(908 100.929) rotate(45)" fill="#19a99f"/></g><g transform="translate(-780.929 -100.929)"><rect width="10" height="10" transform="translate(908 100.929) rotate(45)" fill="#19a99f"/></g><g transform="translate(-750.929 -100.929)"><rect width="10" height="10" transform="translate(908 100.929) rotate(45)" fill="#19a99f"/></g><g transform="translate(-720.929 -100.929)"><rect width="10" height="10" transform="translate(908 100.929) rotate(45)" fill="#19a99f"/></g><g transform="translate(-690.929 -100.929)"><rect width="10" height="10" transform="translate(908 100.929) rotate(45)" fill="#19a99f"/></g><g transform="translate(-660.929 -100.929)"><rect width="10" height="10" transform="translate(908 100.929) rotate(45)" fill="#19a99f"/></g><g transform="translate(-630.929 -100.929)"><rect width="10" height="10" transform="translate(908 100.929) rotate(45)" fill="#19a99f"/></g><g transform="translate(-600.929 -100.929)"><rect width="10" height="10" transform="translate(908 100.929) rotate(45)" fill="#19a99f"/></g><g transform="translate(-570.929 -100.929)"><rect width="10" height="10" transform="translate(908 100.929) rotate(45)" fill="#19a99f"/></g><g transform="translate(-540.929 -100.929)"><rect width="10" height="10" transform="translate(908 100.929) rotate(45)" fill="#19a99f"/></g><g transform="translate(-510.929 -100.929)"><rect width="10" height="10" transform="translate(908 100.929) rotate(45)" fill="#19a99f"/></g><g transform="translate(-480.929 -100.929)"><rect width="10" height="10" transform="translate(908 100.929) rotate(45)" fill="#19a99f"/></g><g transform="translate(-450.929 -100.929)"><rect width="10" height="10" transform="translate(908 100.929) rotate(45)" fill="#19a99f"/></g><g transform="translate(-420.929 -100.929)"><rect width="10" height="10" transform="translate(908 100.929) rotate(45)" fill="#19a99f"/></g><g transform="translate(-390.929 -100.929)"><rect width="10" height="10" transform="translate(908 100.929) rotate(45)" fill="#19a99f"/></g><g transform="translate(-360.929 -100.929)"><rect width="10" height="10" transform="translate(908 100.929) rotate(45)" fill="#19a99f"/></g><g transform="translate(-900.929 -75.929)"><rect width="10" height="10" transform="translate(908 100.929) rotate(45)" fill="#19a99f"/></g><g transform="translate(-870.929 -75.929)"><rect width="10" height="10" transform="translate(908 100.929) rotate(45)" fill="#19a99f"/></g><g transform="translate(-840.929 -75.929)"><rect width="10" height="10" transform="translate(908 100.929) rotate(45)" fill="#19a99f"/></g><g transform="translate(-810.929 -75.929)"><rect width="10" height="10" transform="translate(908 100.929) rotate(45)" fill="#19a99f"/></g><g transform="translate(-780.929 -75.929)"><rect width="10" height="10" transform="translate(908 100.929) rotate(45)" fill="#19a99f"/></g><g transform="translate(-750.929 -75.929)"><rect width="10" height="10" transform="translate(908 100.929) rotate(45)" fill="#19a99f"/></g><g transform="translate(-720.929 -75.929)"><rect width="10" height="10" transform="translate(908 100.929) rotate(45)" fill="#19a99f"/></g><g transform="translate(-690.929 -75.929)"><rect width="10" height="10" transform="translate(908 100.929) rotate(45)" fill="#19a99f"/></g><g transform="translate(-660.929 -75.929)"><rect width="10" height="10" transform="translate(908 100.929) rotate(45)" fill="#19a99f"/></g><g transform="translate(-630.929 -75.929)"><rect width="10" height="10" transform="translate(908 100.929) rotate(45)" fill="#19a99f"/></g><g transform="translate(-600.929 -75.929)"><rect width="10" height="10" transform="translate(908 100.929) rotate(45)" fill="#19a99f"/></g><g transform="translate(-570.929 -75.929)"><rect width="10" height="10" transform="translate(908 100.929) rotate(45)" fill="#19a99f"/></g><g transform="translate(-540.929 -75.929)"><rect width="10" height="10" transform="translate(908 100.929) rotate(45)" fill="#19a99f"/></g><g transform="translate(-510.929 -75.929)"><rect width="10" height="10" transform="translate(908 100.929) rotate(45)" fill="#19a99f"/></g><g transform="translate(-480.929 -75.929)"><rect width="10" height="10" transform="translate(908 100.929) rotate(45)" fill="#19a99f"/></g><g transform="translate(-450.929 -75.929)"><rect width="10" height="10" transform="translate(908 100.929) rotate(45)" fill="#19a99f"/></g><g transform="translate(-420.929 -75.929)"><rect width="10" height="10" transform="translate(908 100.929) rotate(45)" fill="#19a99f"/></g><g transform="translate(-390.929 -75.929)"><rect width="10" height="10" transform="translate(908 100.929) rotate(45)" fill="#19a99f"/></g><g transform="translate(-360.929 -75.929)"><rect width="10" height="10" transform="translate(908 100.929) rotate(45)" fill="#19a99f"/></g><g transform="translate(-900.929 -50.929)"><rect width="10" height="10" transform="translate(908 100.929) rotate(45)" fill="#19a99f"/></g><g transform="translate(-870.929 -50.929)"><rect width="10" height="10" transform="translate(908 100.929) rotate(45)" fill="#19a99f"/></g><g transform="translate(-840.929 -50.929)"><rect width="10" height="10" transform="translate(908 100.929) rotate(45)" fill="#19a99f"/></g><g transform="translate(-810.929 -50.929)"><rect width="10" height="10" transform="translate(908 100.929) rotate(45)" fill="#19a99f"/></g><g transform="translate(-780.929 -50.929)"><rect width="10" height="10" transform="translate(908 100.929) rotate(45)" fill="#19a99f"/></g><g transform="translate(-750.929 -50.929)"><rect width="10" height="10" transform="translate(908 100.929) rotate(45)" fill="#19a99f"/></g><g transform="translate(-720.929 -50.929)"><rect width="10" height="10" transform="translate(908 100.929) rotate(45)" fill="#19a99f"/></g><g transform="translate(-690.929 -50.929)"><rect width="10" height="10" transform="translate(908 100.929) rotate(45)" fill="#19a99f"/></g><g transform="translate(-660.929 -50.929)"><rect width="10" height="10" transform="translate(908 100.929) rotate(45)" fill="#19a99f"/></g><g transform="translate(-630.929 -50.929)"><rect width="10" height="10" transform="translate(908 100.929) rotate(45)" fill="#19a99f"/></g><g transform="translate(-600.929 -50.929)"><rect width="10" height="10" transform="translate(908 100.929) rotate(45)" fill="#19a99f"/></g><g transform="translate(-570.929 -50.929)"><rect width="10" height="10" transform="translate(908 100.929) rotate(45)" fill="#19a99f"/></g><g transform="translate(-540.929 -50.929)"><rect width="10" height="10" transform="translate(908 100.929) rotate(45)" fill="#19a99f"/></g><g transform="translate(-510.929 -50.929)"><rect width="10" height="10" transform="translate(908 100.929) rotate(45)" fill="#19a99f"/></g><g transform="translate(-480.929 -50.929)"><rect width="10" height="10" transform="translate(908 100.929) rotate(45)" fill="#19a99f"/></g><g transform="translate(-450.929 -50.929)"><rect width="10" height="10" transform="translate(908 100.929) rotate(45)" fill="#19a99f"/></g><g transform="translate(-420.929 -50.929)"><rect width="10" height="10" transform="translate(908 100.929) rotate(45)" fill="#19a99f"/></g><g transform="translate(-390.929 -50.929)"><rect width="10" height="10" transform="translate(908 100.929) rotate(45)" fill="#19a99f"/></g><g transform="translate(-360.929 -50.929)"><rect width="10" height="10" transform="translate(908 100.929) rotate(45)" fill="#19a99f"/></g><g transform="translate(-900.929 -25.929)"><rect width="10" height="10" transform="translate(908 100.929) rotate(45)" fill="#19a99f"/></g><g transform="translate(-870.929 -25.929)"><rect width="10" height="10" transform="translate(908 100.929) rotate(45)" fill="#19a99f"/></g><g transform="translate(-840.929 -25.929)"><rect width="10" height="10" transform="translate(908 100.929) rotate(45)" fill="#19a99f"/></g><g transform="translate(-810.929 -25.929)"><rect width="10" height="10" transform="translate(908 100.929) rotate(45)" fill="#19a99f"/></g><g transform="translate(-780.929 -25.929)"><rect width="10" height="10" transform="translate(908 100.929) rotate(45)" fill="#19a99f"/></g><g transform="translate(-750.929 -25.929)"><rect width="10" height="10" transform="translate(908 100.929) rotate(45)" fill="#19a99f"/></g><g transform="translate(-720.929 -25.929)"><rect width="10" height="10" transform="translate(908 100.929) rotate(45)" fill="#19a99f"/></g><g transform="translate(-690.929 -25.929)"><rect width="10" height="10" transform="translate(908 100.929) rotate(45)" fill="#19a99f"/></g><g transform="translate(-660.929 -25.929)"><rect width="10" height="10" transform="translate(908 100.929) rotate(45)" fill="#19a99f"/></g><g transform="translate(-630.929 -25.929)"><rect width="10" height="10" transform="translate(908 100.929) rotate(45)" fill="#19a99f"/></g><g transform="translate(-600.929 -25.929)"><rect width="10" height="10" transform="translate(908 100.929) rotate(45)" fill="#19a99f"/></g><g transform="translate(-570.929 -25.929)"><rect width="10" height="10" transform="translate(908 100.929) rotate(45)" fill="#19a99f"/></g><g transform="translate(-540.929 -25.929)"><rect width="10" height="10" transform="translate(908 100.929) rotate(45)" fill="#19a99f"/></g><g transform="translate(-510.929 -25.929)"><rect width="10" height="10" transform="translate(908 100.929) rotate(45)" fill="#19a99f"/></g><g transform="translate(-480.929 -25.929)"><rect width="10" height="10" transform="translate(908 100.929) rotate(45)" fill="#19a99f"/></g><g transform="translate(-450.929 -25.929)"><rect width="10" height="10" transform="translate(908 100.929) rotate(45)" fill="#19a99f"/></g><g transform="translate(-420.929 -25.929)"><rect width="10" height="10" transform="translate(908 100.929) rotate(45)" fill="#19a99f"/></g><g transform="translate(-390.929 -25.929)"><rect width="10" height="10" transform="translate(908 100.929) rotate(45)" fill="#19a99f"/></g><g transform="translate(-360.929 -25.929)"><rect width="10" height="10" transform="translate(908 100.929) rotate(45)" fill="#19a99f"/></g><g transform="translate(-900.929 -0.929)"><rect width="10" height="10" transform="translate(908 100.929) rotate(45)" fill="#19a99f"/></g><g transform="translate(-870.929 -0.929)"><rect width="10" height="10" transform="translate(908 100.929) rotate(45)" fill="#19a99f"/></g><g transform="translate(-840.929 -0.929)"><rect width="10" height="10" transform="translate(908 100.929) rotate(45)" fill="#19a99f"/></g><g transform="translate(-810.929 -0.929)"><rect width="10" height="10" transform="translate(908 100.929) rotate(45)" fill="#19a99f"/></g><g transform="translate(-780.929 -0.929)"><rect width="10" height="10" transform="translate(908 100.929) rotate(45)" fill="#19a99f"/></g><g transform="translate(-750.929 -0.929)"><rect width="10" height="10" transform="translate(908 100.929) rotate(45)" fill="#19a99f"/></g><g transform="translate(-720.929 -0.929)"><rect width="10" height="10" transform="translate(908 100.929) rotate(45)" fill="#19a99f"/></g><g transform="translate(-690.929 -0.929)"><rect width="10" height="10" transform="translate(908 100.929) rotate(45)" fill="#19a99f"/></g><g transform="translate(-660.929 -0.929)"><rect width="10" height="10" transform="translate(908 100.929) rotate(45)" fill="#19a99f"/></g><g transform="translate(-630.929 -0.929)"><rect width="10" height="10" transform="translate(908 100.929) rotate(45)" fill="#19a99f"/></g><g transform="translate(-600.929 -0.929)"><rect width="10" height="10" transform="translate(908 100.929) rotate(45)" fill="#19a99f"/></g><g transform="translate(-570.929 -0.929)"><rect width="10" height="10" transform="translate(908 100.929) rotate(45)" fill="#19a99f"/></g><g transform="translate(-540.929 -0.929)"><rect width="10" height="10" transform="translate(908 100.929) rotate(45)" fill="#19a99f"/></g><g transform="translate(-510.929 -0.929)"><rect width="10" height="10" transform="translate(908 100.929) rotate(45)" fill="#19a99f"/></g><g transform="translate(-480.929 -0.929)"><rect width="10" height="10" transform="translate(908 100.929) rotate(45)" fill="#19a99f"/></g><g transform="translate(-450.929 -0.929)"><rect width="10" height="10" transform="translate(908 100.929) rotate(45)" fill="#19a99f"/></g><g transform="translate(-420.929 -0.929)"><rect width="10" height="10" transform="translate(908 100.929) rotate(45)" fill="#19a99f"/></g><g transform="translate(-390.929 -0.929)"><rect width="10" height="10" transform="translate(908 100.929) rotate(45)" fill="#19a99f"/></g><g transform="translate(-360.929 -0.929)"><rect width="10" height="10" transform="translate(908 100.929) rotate(45)" fill="#19a99f"/></g></g></g><g transform="translate(-1565.625 218.385) rotate(-21)"><g transform="translate(1368)" clip-path="url(#b)"><g transform="translate(-900.929 -100.929)"><rect width="10" height="10" transform="translate(908 100.929) rotate(45)" fill="#19a99f"/></g><g transform="translate(-866.929 -100.929)"><rect width="10" height="10" transform="translate(908 100.929) rotate(45)" fill="#19a99f"/></g><g transform="translate(-832.929 -100.929)"><rect width="10" height="10" transform="translate(908 100.929) rotate(45)" fill="#19a99f"/></g><g transform="translate(-798.929 -100.929)"><rect width="10" height="10" transform="translate(908 100.929) rotate(45)" fill="#19a99f"/></g><g transform="translate(-764.929 -100.929)"><rect width="10" height="10" transform="translate(908 100.929) rotate(45)" fill="#19a99f"/></g><g transform="translate(-730.929 -100.929)"><rect width="10" height="10" transform="translate(908 100.929) rotate(45)" fill="#19a99f"/></g><g transform="translate(-696.929 -100.929)"><rect width="10" height="10" transform="translate(908 100.929) rotate(45)" fill="#19a99f"/></g><g transform="translate(-662.929 -100.929)"><rect width="10" height="10" transform="translate(908 100.929) rotate(45)" fill="#19a99f"/></g><g transform="translate(-628.929 -100.929)"><rect width="10" height="10" transform="translate(908 100.929) rotate(45)" fill="#19a99f"/></g><g transform="translate(-594.929 -100.929)"><rect width="10" height="10" transform="translate(908 100.929) rotate(45)" fill="#19a99f"/></g><g transform="translate(-560.929 -100.929)"><rect width="10" height="10" transform="translate(908 100.929) rotate(45)" fill="#19a99f"/></g><g transform="translate(-526.929 -100.929)"><rect width="10" height="10" transform="translate(908 100.929) rotate(45)" fill="#19a99f"/></g><g transform="translate(-492.929 -100.929)"><rect width="10" height="10" transform="translate(908 100.929) rotate(45)" fill="#19a99f"/></g><g transform="translate(-458.929 -100.929)"><rect width="10" height="10" transform="translate(908 100.929) rotate(45)" fill="#19a99f"/></g><g transform="translate(-900.929 -73.929)"><rect width="10" height="10" transform="translate(908 100.929) rotate(45)" fill="#19a99f"/></g><g transform="translate(-866.929 -73.929)"><rect width="10" height="10" transform="translate(908 100.929) rotate(45)" fill="#19a99f"/></g><g transform="translate(-832.929 -73.929)"><rect width="10" height="10" transform="translate(908 100.929) rotate(45)" fill="#19a99f"/></g><g transform="translate(-798.929 -73.929)"><rect width="10" height="10" transform="translate(908 100.929) rotate(45)" fill="#19a99f"/></g><g transform="translate(-764.929 -73.929)"><rect width="10" height="10" transform="translate(908 100.929) rotate(45)" fill="#19a99f"/></g><g transform="translate(-730.929 -73.929)"><rect width="10" height="10" transform="translate(908 100.929) rotate(45)" fill="#19a99f"/></g><g transform="translate(-696.929 -73.929)"><rect width="10" height="10" transform="translate(908 100.929) rotate(45)" fill="#19a99f"/></g><g transform="translate(-662.929 -73.929)"><rect width="10" height="10" transform="translate(908 100.929) rotate(45)" fill="#19a99f"/></g><g transform="translate(-628.929 -73.929)"><rect width="10" height="10" transform="translate(908 100.929) rotate(45)" fill="#19a99f"/></g><g transform="translate(-594.929 -73.929)"><rect width="10" height="10" transform="translate(908 100.929) rotate(45)" fill="#19a99f"/></g><g transform="translate(-560.929 -73.929)"><rect width="10" height="10" transform="translate(908 100.929) rotate(45)" fill="#19a99f"/></g><g transform="translate(-526.929 -73.929)"><rect width="10" height="10" transform="translate(908 100.929) rotate(45)" fill="#19a99f"/></g><g transform="translate(-492.929 -73.929)"><rect width="10" height="10" transform="translate(908 100.929) rotate(45)" fill="#19a99f"/></g><g transform="translate(-458.929 -73.929)"><rect width="10" height="10" transform="translate(908 100.929) rotate(45)" fill="#19a99f"/></g><g transform="translate(-900.929 -46.929)"><rect width="10" height="10" transform="translate(908 100.929) rotate(45)" fill="#19a99f"/></g><g transform="translate(-866.929 -46.929)"><rect width="10" height="10" transform="translate(908 100.929) rotate(45)" fill="#19a99f"/></g><g transform="translate(-832.929 -46.929)"><rect width="10" height="10" transform="translate(908 100.929) rotate(45)" fill="#19a99f"/></g><g transform="translate(-798.929 -46.929)"><rect width="10" height="10" transform="translate(908 100.929) rotate(45)" fill="#19a99f"/></g><g transform="translate(-764.929 -46.929)"><rect width="10" height="10" transform="translate(908 100.929) rotate(45)" fill="#19a99f"/></g><g transform="translate(-730.929 -46.929)"><rect width="10" height="10" transform="translate(908 100.929) rotate(45)" fill="#19a99f"/></g><g transform="translate(-696.929 -46.929)"><rect width="10" height="10" transform="translate(908 100.929) rotate(45)" fill="#19a99f"/></g><g transform="translate(-662.929 -46.929)"><rect width="10" height="10" transform="translate(908 100.929) rotate(45)" fill="#19a99f"/></g><g transform="translate(-628.929 -46.929)"><rect width="10" height="10" transform="translate(908 100.929) rotate(45)" fill="#19a99f"/></g><g transform="translate(-594.929 -46.929)"><rect width="10" height="10" transform="translate(908 100.929) rotate(45)" fill="#19a99f"/></g><g transform="translate(-560.929 -46.929)"><rect width="10" height="10" transform="translate(908 100.929) rotate(45)" fill="#19a99f"/></g><g transform="translate(-526.929 -46.929)"><rect width="10" height="10" transform="translate(908 100.929) rotate(45)" fill="#19a99f"/></g><g transform="translate(-492.929 -46.929)"><rect width="10" height="10" transform="translate(908 100.929) rotate(45)" fill="#19a99f"/></g><g transform="translate(-458.929 -46.929)"><rect width="10" height="10" transform="translate(908 100.929) rotate(45)" fill="#19a99f"/></g><g transform="translate(-900.929 -19.929)"><rect width="10" height="10" transform="translate(908 100.929) rotate(45)" fill="#19a99f"/></g><g transform="translate(-866.929 -19.929)"><rect width="10" height="10" transform="translate(908 100.929) rotate(45)" fill="#19a99f"/></g><g transform="translate(-832.929 -19.929)"><rect width="10" height="10" transform="translate(908 100.929) rotate(45)" fill="#19a99f"/></g><g transform="translate(-798.929 -19.929)"><rect width="10" height="10" transform="translate(908 100.929) rotate(45)" fill="#19a99f"/></g><g transform="translate(-764.929 -19.929)"><rect width="10" height="10" transform="translate(908 100.929) rotate(45)" fill="#19a99f"/></g><g transform="translate(-730.929 -19.929)"><rect width="10" height="10" transform="translate(908 100.929) rotate(45)" fill="#19a99f"/></g><g transform="translate(-696.929 -19.929)"><rect width="10" height="10" transform="translate(908 100.929) rotate(45)" fill="#19a99f"/></g><g transform="translate(-662.929 -19.929)"><rect width="10" height="10" transform="translate(908 100.929) rotate(45)" fill="#19a99f"/></g><g transform="translate(-628.929 -19.929)"><rect width="10" height="10" transform="translate(908 100.929) rotate(45)" fill="#19a99f"/></g><g transform="translate(-594.929 -19.929)"><rect width="10" height="10" transform="translate(908 100.929) rotate(45)" fill="#19a99f"/></g><g transform="translate(-560.929 -19.929)"><rect width="10" height="10" transform="translate(908 100.929) rotate(45)" fill="#19a99f"/></g><g transform="translate(-526.929 -19.929)"><rect width="10" height="10" transform="translate(908 100.929) rotate(45)" fill="#19a99f"/></g><g transform="translate(-492.929 -19.929)"><rect width="10" height="10" transform="translate(908 100.929) rotate(45)" fill="#19a99f"/></g><g transform="translate(-458.929 -19.929)"><rect width="10" height="10" transform="translate(908 100.929) rotate(45)" fill="#19a99f"/></g><g transform="translate(-900.929 7.071)"><rect width="10" height="10" transform="translate(908 100.929) rotate(45)" fill="#19a99f"/></g><g transform="translate(-866.929 7.071)"><rect width="10" height="10" transform="translate(908 100.929) rotate(45)" fill="#19a99f"/></g><g transform="translate(-832.929 7.071)"><rect width="10" height="10" transform="translate(908 100.929) rotate(45)" fill="#19a99f"/></g><g transform="translate(-798.929 7.071)"><rect width="10" height="10" transform="translate(908 100.929) rotate(45)" fill="#19a99f"/></g><g transform="translate(-764.929 7.071)"><rect width="10" height="10" transform="translate(908 100.929) rotate(45)" fill="#19a99f"/></g><g transform="translate(-730.929 7.071)"><rect width="10" height="10" transform="translate(908 100.929) rotate(45)" fill="#19a99f"/></g><g transform="translate(-696.929 7.071)"><rect width="10" height="10" transform="translate(908 100.929) rotate(45)" fill="#19a99f"/></g><g transform="translate(-662.929 7.071)"><rect width="10" height="10" transform="translate(908 100.929) rotate(45)" fill="#19a99f"/></g><g transform="translate(-628.929 7.071)"><rect width="10" height="10" transform="translate(908 100.929) rotate(45)" fill="#19a99f"/></g><g transform="translate(-594.929 7.071)"><rect width="10" height="10" transform="translate(908 100.929) rotate(45)" fill="#19a99f"/></g><g transform="translate(-560.929 7.071)"><rect width="10" height="10" transform="translate(908 100.929) rotate(45)" fill="#19a99f"/></g><g transform="translate(-526.929 7.071)"><rect width="10" height="10" transform="translate(908 100.929) rotate(45)" fill="#19a99f"/></g><g transform="translate(-492.929 7.071)"><rect width="10" height="10" transform="translate(908 100.929) rotate(45)" fill="#19a99f"/></g><g transform="translate(-458.929 7.071)"><rect width="10" height="10" transform="translate(908 100.929) rotate(45)" fill="#19a99f"/></g><g transform="translate(-900.929 34.071)"><rect width="10" height="10" transform="translate(908 100.929) rotate(45)" fill="#19a99f"/></g><g transform="translate(-866.929 34.071)"><rect width="10" height="10" transform="translate(908 100.929) rotate(45)" fill="#19a99f"/></g><g transform="translate(-832.929 34.071)"><rect width="10" height="10" transform="translate(908 100.929) rotate(45)" fill="#19a99f"/></g><g transform="translate(-798.929 34.071)"><rect width="10" height="10" transform="translate(908 100.929) rotate(45)" fill="#19a99f"/></g><g transform="translate(-764.929 34.071)"><rect width="10" height="10" transform="translate(908 100.929) rotate(45)" fill="#19a99f"/></g><g transform="translate(-730.929 34.071)"><rect width="10" height="10" transform="translate(908 100.929) rotate(45)" fill="#19a99f"/></g><g transform="translate(-696.929 34.071)"><rect width="10" height="10" transform="translate(908 100.929) rotate(45)" fill="#19a99f"/></g><g transform="translate(-662.929 34.071)"><rect width="10" height="10" transform="translate(908 100.929) rotate(45)" fill="#19a99f"/></g><g transform="translate(-628.929 34.071)"><rect width="10" height="10" transform="translate(908 100.929) rotate(45)" fill="#19a99f"/></g><g transform="translate(-594.929 34.071)"><rect width="10" height="10" transform="translate(908 100.929) rotate(45)" fill="#19a99f"/></g><g transform="translate(-560.929 34.071)"><rect width="10" height="10" transform="translate(908 100.929) rotate(45)" fill="#19a99f"/></g><g transform="translate(-526.929 34.071)"><rect width="10" height="10" transform="translate(908 100.929) rotate(45)" fill="#19a99f"/></g><g transform="translate(-492.929 34.071)"><rect width="10" height="10" transform="translate(908 100.929) rotate(45)" fill="#19a99f"/></g><g transform="translate(-458.929 34.071)"><rect width="10" height="10" transform="translate(908 100.929) rotate(45)" fill="#19a99f"/></g><g transform="translate(-900.929 61.071)"><rect width="10" height="10" transform="translate(908 100.929) rotate(45)" fill="#19a99f"/></g><g transform="translate(-866.929 61.071)"><rect width="10" height="10" transform="translate(908 100.929) rotate(45)" fill="#19a99f"/></g><g transform="translate(-832.929 61.071)"><rect width="10" height="10" transform="translate(908 100.929) rotate(45)" fill="#19a99f"/></g><g transform="translate(-798.929 61.071)"><rect width="10" height="10" transform="translate(908 100.929) rotate(45)" fill="#19a99f"/></g><g transform="translate(-764.929 61.071)"><rect width="10" height="10" transform="translate(908 100.929) rotate(45)" fill="#19a99f"/></g><g transform="translate(-730.929 61.071)"><rect width="10" height="10" transform="translate(908 100.929) rotate(45)" fill="#19a99f"/></g><g transform="translate(-696.929 61.071)"><rect width="10" height="10" transform="translate(908 100.929) rotate(45)" fill="#19a99f"/></g><g transform="translate(-662.929 61.071)"><rect width="10" height="10" transform="translate(908 100.929) rotate(45)" fill="#19a99f"/></g><g transform="translate(-628.929 61.071)"><rect width="10" height="10" transform="translate(908 100.929) rotate(45)" fill="#19a99f"/></g><g transform="translate(-594.929 61.071)"><rect width="10" height="10" transform="translate(908 100.929) rotate(45)" fill="#19a99f"/></g><g transform="translate(-560.929 61.071)"><rect width="10" height="10" transform="translate(908 100.929) rotate(45)" fill="#19a99f"/></g><g transform="translate(-526.929 61.071)"><rect width="10" height="10" transform="translate(908 100.929) rotate(45)" fill="#19a99f"/></g><g transform="translate(-492.929 61.071)"><rect width="10" height="10" transform="translate(908 100.929) rotate(45)" fill="#19a99f"/></g><g transform="translate(-458.929 61.071)"><rect width="10" height="10" transform="translate(908 100.929) rotate(45)" fill="#19a99f"/></g><g transform="translate(-900.929 88.071)"><rect width="10" height="10" transform="translate(908 100.929) rotate(45)" fill="#19a99f"/></g><g transform="translate(-866.929 88.071)"><rect width="10" height="10" transform="translate(908 100.929) rotate(45)" fill="#19a99f"/></g><g transform="translate(-832.929 88.071)"><rect width="10" height="10" transform="translate(908 100.929) rotate(45)" fill="#19a99f"/></g><g transform="translate(-798.929 88.071)"><rect width="10" height="10" transform="translate(908 100.929) rotate(45)" fill="#19a99f"/></g><g transform="translate(-764.929 88.071)"><rect width="10" height="10" transform="translate(908 100.929) rotate(45)" fill="#19a99f"/></g><g transform="translate(-730.929 88.071)"><rect width="10" height="10" transform="translate(908 100.929) rotate(45)" fill="#19a99f"/></g><g transform="translate(-696.929 88.071)"><rect width="10" height="10" transform="translate(908 100.929) rotate(45)" fill="#19a99f"/></g><g transform="translate(-662.929 88.071)"><rect width="10" height="10" transform="translate(908 100.929) rotate(45)" fill="#19a99f"/></g><g transform="translate(-628.929 88.071)"><rect width="10" height="10" transform="translate(908 100.929) rotate(45)" fill="#19a99f"/></g><g transform="translate(-594.929 88.071)"><rect width="10" height="10" transform="translate(908 100.929) rotate(45)" fill="#19a99f"/></g><g transform="translate(-560.929 88.071)"><rect width="10" height="10" transform="translate(908 100.929) rotate(45)" fill="#19a99f"/></g><g transform="translate(-526.929 88.071)"><rect width="10" height="10" transform="translate(908 100.929) rotate(45)" fill="#19a99f"/></g><g transform="translate(-492.929 88.071)"><rect width="10" height="10" transform="translate(908 100.929) rotate(45)" fill="#19a99f"/></g><g transform="translate(-458.929 88.071)"><rect width="10" height="10" transform="translate(908 100.929) rotate(45)" fill="#19a99f"/></g><g transform="translate(-900.929 115.071)"><rect width="10" height="10" transform="translate(908 100.929) rotate(45)" fill="#19a99f"/></g><g transform="translate(-866.929 115.071)"><rect width="10" height="10" transform="translate(908 100.929) rotate(45)" fill="#19a99f"/></g><g transform="translate(-832.929 115.071)"><rect width="10" height="10" transform="translate(908 100.929) rotate(45)" fill="#19a99f"/></g><g transform="translate(-798.929 115.071)"><rect width="10" height="10" transform="translate(908 100.929) rotate(45)" fill="#19a99f"/></g><g transform="translate(-764.929 115.071)"><rect width="10" height="10" transform="translate(908 100.929) rotate(45)" fill="#19a99f"/></g><g transform="translate(-730.929 115.071)"><rect width="10" height="10" transform="translate(908 100.929) rotate(45)" fill="#19a99f"/></g><g transform="translate(-696.929 115.071)"><rect width="10" height="10" transform="translate(908 100.929) rotate(45)" fill="#19a99f"/></g><g transform="translate(-662.929 115.071)"><rect width="10" height="10" transform="translate(908 100.929) rotate(45)" fill="#19a99f"/></g><g transform="translate(-628.929 115.071)"><rect width="10" height="10" transform="translate(908 100.929) rotate(45)" fill="#19a99f"/></g><g transform="translate(-594.929 115.071)"><rect width="10" height="10" transform="translate(908 100.929) rotate(45)" fill="#19a99f"/></g><g transform="translate(-560.929 115.071)"><rect width="10" height="10" transform="translate(908 100.929) rotate(45)" fill="#19a99f"/></g><g transform="translate(-526.929 115.071)"><rect width="10" height="10" transform="translate(908 100.929) rotate(45)" fill="#19a99f"/></g><g transform="translate(-492.929 115.071)"><rect width="10" height="10" transform="translate(908 100.929) rotate(45)" fill="#19a99f"/></g><g transform="translate(-458.929 115.071)"><rect width="10" height="10" transform="translate(908 100.929) rotate(45)" fill="#19a99f"/></g><g transform="translate(-900.929 142.071)"><rect width="10" height="10" transform="translate(908 100.929) rotate(45)" fill="#19a99f"/></g><g transform="translate(-866.929 142.071)"><rect width="10" height="10" transform="translate(908 100.929) rotate(45)" fill="#19a99f"/></g><g transform="translate(-832.929 142.071)"><rect width="10" height="10" transform="translate(908 100.929) rotate(45)" fill="#19a99f"/></g><g transform="translate(-798.929 142.071)"><rect width="10" height="10" transform="translate(908 100.929) rotate(45)" fill="#19a99f"/></g><g transform="translate(-764.929 142.071)"><rect width="10" height="10" transform="translate(908 100.929) rotate(45)" fill="#19a99f"/></g><g transform="translate(-730.929 142.071)"><rect width="10" height="10" transform="translate(908 100.929) rotate(45)" fill="#19a99f"/></g><g transform="translate(-696.929 142.071)"><rect width="10" height="10" transform="translate(908 100.929) rotate(45)" fill="#19a99f"/></g><g transform="translate(-662.929 142.071)"><rect width="10" height="10" transform="translate(908 100.929) rotate(45)" fill="#19a99f"/></g><g transform="translate(-628.929 142.071)"><rect width="10" height="10" transform="translate(908 100.929) rotate(45)" fill="#19a99f"/></g><g transform="translate(-594.929 142.071)"><rect width="10" height="10" transform="translate(908 100.929) rotate(45)" fill="#19a99f"/></g><g transform="translate(-560.929 142.071)"><rect width="10" height="10" transform="translate(908 100.929) rotate(45)" fill="#19a99f"/></g><g transform="translate(-526.929 142.071)"><rect width="10" height="10" transform="translate(908 100.929) rotate(45)" fill="#19a99f"/></g><g transform="translate(-492.929 142.071)"><rect width="10" height="10" transform="translate(908 100.929) rotate(45)" fill="#19a99f"/></g><g transform="translate(-458.929 142.071)"><rect width="10" height="10" transform="translate(908 100.929) rotate(45)" fill="#19a99f"/></g><g transform="translate(-900.929 169.071)"><rect width="10" height="10" transform="translate(908 100.929) rotate(45)" fill="#19a99f"/></g><g transform="translate(-866.929 169.071)"><rect width="10" height="10" transform="translate(908 100.929) rotate(45)" fill="#19a99f"/></g><g transform="translate(-832.929 169.071)"><rect width="10" height="10" transform="translate(908 100.929) rotate(45)" fill="#19a99f"/></g><g transform="translate(-798.929 169.071)"><rect width="10" height="10" transform="translate(908 100.929) rotate(45)" fill="#19a99f"/></g><g transform="translate(-764.929 169.071)"><rect width="10" height="10" transform="translate(908 100.929) rotate(45)" fill="#19a99f"/></g><g transform="translate(-730.929 169.071)"><rect width="10" height="10" transform="translate(908 100.929) rotate(45)" fill="#19a99f"/></g><g transform="translate(-696.929 169.071)"><rect width="10" height="10" transform="translate(908 100.929) rotate(45)" fill="#19a99f"/></g><g transform="translate(-662.929 169.071)"><rect width="10" height="10" transform="translate(908 100.929) rotate(45)" fill="#19a99f"/></g><g transform="translate(-628.929 169.071)"><rect width="10" height="10" transform="translate(908 100.929) rotate(45)" fill="#19a99f"/></g><g transform="translate(-594.929 169.071)"><rect width="10" height="10" transform="translate(908 100.929) rotate(45)" fill="#19a99f"/></g><g transform="translate(-560.929 169.071)"><rect width="10" height="10" transform="translate(908 100.929) rotate(45)" fill="#19a99f"/></g><g transform="translate(-526.929 169.071)"><rect width="10" height="10" transform="translate(908 100.929) rotate(45)" fill="#19a99f"/></g><g transform="translate(-492.929 169.071)"><rect width="10" height="10" transform="translate(908 100.929) rotate(45)" fill="#19a99f"/></g><g transform="translate(-458.929 169.071)"><rect width="10" height="10" transform="translate(908 100.929) rotate(45)" fill="#19a99f"/></g><g transform="translate(-900.929 196.071)"><rect width="10" height="10" transform="translate(908 100.929) rotate(45)" fill="#19a99f"/></g><g transform="translate(-866.929 196.071)"><rect width="10" height="10" transform="translate(908 100.929) rotate(45)" fill="#19a99f"/></g><g transform="translate(-832.929 196.071)"><rect width="10" height="10" transform="translate(908 100.929) rotate(45)" fill="#19a99f"/></g><g transform="translate(-798.929 196.071)"><rect width="10" height="10" transform="translate(908 100.929) rotate(45)" fill="#19a99f"/></g><g transform="translate(-764.929 196.071)"><rect width="10" height="10" transform="translate(908 100.929) rotate(45)" fill="#19a99f"/></g><g transform="translate(-730.929 196.071)"><rect width="10" height="10" transform="translate(908 100.929) rotate(45)" fill="#19a99f"/></g><g transform="translate(-696.929 196.071)"><rect width="10" height="10" transform="translate(908 100.929) rotate(45)" fill="#19a99f"/></g><g transform="translate(-662.929 196.071)"><rect width="10" height="10" transform="translate(908 100.929) rotate(45)" fill="#19a99f"/></g><g transform="translate(-628.929 196.071)"><rect width="10" height="10" transform="translate(908 100.929) rotate(45)" fill="#19a99f"/></g><g transform="translate(-594.929 196.071)"><rect width="10" height="10" transform="translate(908 100.929) rotate(45)" fill="#19a99f"/></g><g transform="translate(-560.929 196.071)"><rect width="10" height="10" transform="translate(908 100.929) rotate(45)" fill="#19a99f"/></g><g transform="translate(-526.929 196.071)"><rect width="10" height="10" transform="translate(908 100.929) rotate(45)" fill="#19a99f"/></g><g transform="translate(-492.929 196.071)"><rect width="10" height="10" transform="translate(908 100.929) rotate(45)" fill="#19a99f"/></g><g transform="translate(-458.929 196.071)"><rect width="10" height="10" transform="translate(908 100.929) rotate(45)" fill="#19a99f"/></g><g transform="translate(-900.929 223.071)"><rect width="10" height="10" transform="translate(908 100.929) rotate(45)" fill="#19a99f"/></g><g transform="translate(-866.929 223.071)"><rect width="10" height="10" transform="translate(908 100.929) rotate(45)" fill="#19a99f"/></g><g transform="translate(-832.929 223.071)"><rect width="10" height="10" transform="translate(908 100.929) rotate(45)" fill="#19a99f"/></g><g transform="translate(-798.929 223.071)"><rect width="10" height="10" transform="translate(908 100.929) rotate(45)" fill="#19a99f"/></g><g transform="translate(-764.929 223.071)"><rect width="10" height="10" transform="translate(908 100.929) rotate(45)" fill="#19a99f"/></g><g transform="translate(-730.929 223.071)"><rect width="10" height="10" transform="translate(908 100.929) rotate(45)" fill="#19a99f"/></g><g transform="translate(-696.929 223.071)"><rect width="10" height="10" transform="translate(908 100.929) rotate(45)" fill="#19a99f"/></g><g transform="translate(-662.929 223.071)"><rect width="10" height="10" transform="translate(908 100.929) rotate(45)" fill="#19a99f"/></g><g transform="translate(-628.929 223.071)"><rect width="10" height="10" transform="translate(908 100.929) rotate(45)" fill="#19a99f"/></g><g transform="translate(-594.929 223.071)"><rect width="10" height="10" transform="translate(908 100.929) rotate(45)" fill="#19a99f"/></g><g transform="translate(-560.929 223.071)"><rect width="10" height="10" transform="translate(908 100.929) rotate(45)" fill="#19a99f"/></g><g transform="translate(-526.929 223.071)"><rect width="10" height="10" transform="translate(908 100.929) rotate(45)" fill="#19a99f"/></g><g transform="translate(-492.929 223.071)"><rect width="10" height="10" transform="translate(908 100.929) rotate(45)" fill="#19a99f"/></g><g transform="translate(-458.929 223.071)"><rect width="10" height="10" transform="translate(908 100.929) rotate(45)" fill="#19a99f"/></g><g transform="translate(-900.929 250.071)"><rect width="10" height="10" transform="translate(908 100.929) rotate(45)" fill="#19a99f"/></g><g transform="translate(-866.929 250.071)"><rect width="10" height="10" transform="translate(908 100.929) rotate(45)" fill="#19a99f"/></g><g transform="translate(-832.929 250.071)"><rect width="10" height="10" transform="translate(908 100.929) rotate(45)" fill="#19a99f"/></g><g transform="translate(-798.929 250.071)"><rect width="10" height="10" transform="translate(908 100.929) rotate(45)" fill="#19a99f"/></g><g transform="translate(-764.929 250.071)"><rect width="10" height="10" transform="translate(908 100.929) rotate(45)" fill="#19a99f"/></g><g transform="translate(-730.929 250.071)"><rect width="10" height="10" transform="translate(908 100.929) rotate(45)" fill="#19a99f"/></g><g transform="translate(-696.929 250.071)"><rect width="10" height="10" transform="translate(908 100.929) rotate(45)" fill="#19a99f"/></g><g transform="translate(-662.929 250.071)"><rect width="10" height="10" transform="translate(908 100.929) rotate(45)" fill="#19a99f"/></g><g transform="translate(-628.929 250.071)"><rect width="10" height="10" transform="translate(908 100.929) rotate(45)" fill="#19a99f"/></g><g transform="translate(-594.929 250.071)"><rect width="10" height="10" transform="translate(908 100.929) rotate(45)" fill="#19a99f"/></g><g transform="translate(-560.929 250.071)"><rect width="10" height="10" transform="translate(908 100.929) rotate(45)" fill="#19a99f"/></g><g transform="translate(-526.929 250.071)"><rect width="10" height="10" transform="translate(908 100.929) rotate(45)" fill="#19a99f"/></g><g transform="translate(-492.929 250.071)"><rect width="10" height="10" transform="translate(908 100.929) rotate(45)" fill="#19a99f"/></g><g transform="translate(-458.929 250.071)"><rect width="10" height="10" transform="translate(908 100.929) rotate(45)" fill="#19a99f"/></g><g transform="translate(-900.929 277.071)"><rect width="10" height="10" transform="translate(908 100.929) rotate(45)" fill="#19a99f"/></g><g transform="translate(-866.929 277.071)"><rect width="10" height="10" transform="translate(908 100.929) rotate(45)" fill="#19a99f"/></g><g transform="translate(-832.929 277.071)"><rect width="10" height="10" transform="translate(908 100.929) rotate(45)" fill="#19a99f"/></g><g transform="translate(-798.929 277.071)"><rect width="10" height="10" transform="translate(908 100.929) rotate(45)" fill="#19a99f"/></g><g transform="translate(-764.929 277.071)"><rect width="10" height="10" transform="translate(908 100.929) rotate(45)" fill="#19a99f"/></g><g transform="translate(-730.929 277.071)"><rect width="10" height="10" transform="translate(908 100.929) rotate(45)" fill="#19a99f"/></g><g transform="translate(-696.929 277.071)"><rect width="10" height="10" transform="translate(908 100.929) rotate(45)" fill="#19a99f"/></g><g transform="translate(-662.929 277.071)"><rect width="10" height="10" transform="translate(908 100.929) rotate(45)" fill="#19a99f"/></g><g transform="translate(-628.929 277.071)"><rect width="10" height="10" transform="translate(908 100.929) rotate(45)" fill="#19a99f"/></g><g transform="translate(-594.929 277.071)"><rect width="10" height="10" transform="translate(908 100.929) rotate(45)" fill="#19a99f"/></g><g transform="translate(-560.929 277.071)"><rect width="10" height="10" transform="translate(908 100.929) rotate(45)" fill="#19a99f"/></g><g transform="translate(-526.929 277.071)"><rect width="10" height="10" transform="translate(908 100.929) rotate(45)" fill="#19a99f"/></g><g transform="translate(-492.929 277.071)"><rect width="10" height="10" transform="translate(908 100.929) rotate(45)" fill="#19a99f"/></g><g transform="translate(-458.929 277.071)"><rect width="10" height="10" transform="translate(908 100.929) rotate(45)" fill="#19a99f"/></g><g transform="translate(-900.929 304.071)"><rect width="10" height="10" transform="translate(908 100.929) rotate(45)" fill="#19a99f"/></g><g transform="translate(-866.929 304.071)"><rect width="10" height="10" transform="translate(908 100.929) rotate(45)" fill="#19a99f"/></g><g transform="translate(-832.929 304.071)"><rect width="10" height="10" transform="translate(908 100.929) rotate(45)" fill="#19a99f"/></g><g transform="translate(-798.929 304.071)"><rect width="10" height="10" transform="translate(908 100.929) rotate(45)" fill="#19a99f"/></g><g transform="translate(-764.929 304.071)"><rect width="10" height="10" transform="translate(908 100.929) rotate(45)" fill="#19a99f"/></g><g transform="translate(-730.929 304.071)"><rect width="10" height="10" transform="translate(908 100.929) rotate(45)" fill="#19a99f"/></g><g transform="translate(-696.929 304.071)"><rect width="10" height="10" transform="translate(908 100.929) rotate(45)" fill="#19a99f"/></g><g transform="translate(-662.929 304.071)"><rect width="10" height="10" transform="translate(908 100.929) rotate(45)" fill="#19a99f"/></g><g transform="translate(-628.929 304.071)"><rect width="10" height="10" transform="translate(908 100.929) rotate(45)" fill="#19a99f"/></g><g transform="translate(-594.929 304.071)"><rect width="10" height="10" transform="translate(908 100.929) rotate(45)" fill="#19a99f"/></g><g transform="translate(-560.929 304.071)"><rect width="10" height="10" transform="translate(908 100.929) rotate(45)" fill="#19a99f"/></g><g transform="translate(-526.929 304.071)"><rect width="10" height="10" transform="translate(908 100.929) rotate(45)" fill="#19a99f"/></g><g transform="translate(-492.929 304.071)"><rect width="10" height="10" transform="translate(908 100.929) rotate(45)" fill="#19a99f"/></g><g transform="translate(-458.929 304.071)"><rect width="10" height="10" transform="translate(908 100.929) rotate(45)" fill="#19a99f"/></g><g transform="translate(-900.929 331.071)"><rect width="10" height="10" transform="translate(908 100.929) rotate(45)" fill="#19a99f"/></g><g transform="translate(-866.929 331.071)"><rect width="10" height="10" transform="translate(908 100.929) rotate(45)" fill="#19a99f"/></g><g transform="translate(-832.929 331.071)"><rect width="10" height="10" transform="translate(908 100.929) rotate(45)" fill="#19a99f"/></g><g transform="translate(-798.929 331.071)"><rect width="10" height="10" transform="translate(908 100.929) rotate(45)" fill="#19a99f"/></g><g transform="translate(-764.929 331.071)"><rect width="10" height="10" transform="translate(908 100.929) rotate(45)" fill="#19a99f"/></g><g transform="translate(-730.929 331.071)"><rect width="10" height="10" transform="translate(908 100.929) rotate(45)" fill="#19a99f"/></g><g transform="translate(-696.929 331.071)"><rect width="10" height="10" transform="translate(908 100.929) rotate(45)" fill="#19a99f"/></g><g transform="translate(-662.929 331.071)"><rect width="10" height="10" transform="translate(908 100.929) rotate(45)" fill="#19a99f"/></g><g transform="translate(-628.929 331.071)"><rect width="10" height="10" transform="translate(908 100.929) rotate(45)" fill="#19a99f"/></g><g transform="translate(-594.929 331.071)"><rect width="10" height="10" transform="translate(908 100.929) rotate(45)" fill="#19a99f"/></g><g transform="translate(-560.929 331.071)"><rect width="10" height="10" transform="translate(908 100.929) rotate(45)" fill="#19a99f"/></g><g transform="translate(-526.929 331.071)"><rect width="10" height="10" transform="translate(908 100.929) rotate(45)" fill="#19a99f"/></g><g transform="translate(-492.929 331.071)"><rect width="10" height="10" transform="translate(908 100.929) rotate(45)" fill="#19a99f"/></g><g transform="translate(-458.929 331.071)"><rect width="10" height="10" transform="translate(908 100.929) rotate(45)" fill="#19a99f"/></g><g transform="translate(-900.929 358.071)"><rect width="10" height="10" transform="translate(908 100.929) rotate(45)" fill="#19a99f"/></g><g transform="translate(-866.929 358.071)"><rect width="10" height="10" transform="translate(908 100.929) rotate(45)" fill="#19a99f"/></g><g transform="translate(-832.929 358.071)"><rect width="10" height="10" transform="translate(908 100.929) rotate(45)" fill="#19a99f"/></g><g transform="translate(-798.929 358.071)"><rect width="10" height="10" transform="translate(908 100.929) rotate(45)" fill="#19a99f"/></g><g transform="translate(-764.929 358.071)"><rect width="10" height="10" transform="translate(908 100.929) rotate(45)" fill="#19a99f"/></g><g transform="translate(-730.929 358.071)"><rect width="10" height="10" transform="translate(908 100.929) rotate(45)" fill="#19a99f"/></g><g transform="translate(-696.929 358.071)"><rect width="10" height="10" transform="translate(908 100.929) rotate(45)" fill="#19a99f"/></g><g transform="translate(-662.929 358.071)"><rect width="10" height="10" transform="translate(908 100.929) rotate(45)" fill="#19a99f"/></g><g transform="translate(-628.929 358.071)"><rect width="10" height="10" transform="translate(908 100.929) rotate(45)" fill="#19a99f"/></g><g transform="translate(-594.929 358.071)"><rect width="10" height="10" transform="translate(908 100.929) rotate(45)" fill="#19a99f"/></g><g transform="translate(-560.929 358.071)"><rect width="10" height="10" transform="translate(908 100.929) rotate(45)" fill="#19a99f"/></g><g transform="translate(-526.929 358.071)"><rect width="10" height="10" transform="translate(908 100.929) rotate(45)" fill="#19a99f"/></g><g transform="translate(-492.929 358.071)"><rect width="10" height="10" transform="translate(908 100.929) rotate(45)" fill="#19a99f"/></g><g transform="translate(-458.929 358.071)"><rect width="10" height="10" transform="translate(908 100.929) rotate(45)" fill="#19a99f"/></g></g></g><g transform="matrix(0.799, -0.602, 0.602, 0.799, 641.538, 1282.673)"><g transform="translate(1368)" clip-path="url(#c)"><g transform="translate(-900.929 -100.929)"><rect width="10" height="10" transform="translate(908 100.929) rotate(45)" fill="#19a99f"/></g><g transform="translate(-870.929 -100.929)"><rect width="10" height="10" transform="translate(908 100.929) rotate(45)" fill="#19a99f"/></g><g transform="translate(-840.929 -100.929)"><rect width="10" height="10" transform="translate(908 100.929) rotate(45)" fill="#19a99f"/></g><g transform="translate(-810.929 -100.929)"><rect width="10" height="10" transform="translate(908 100.929) rotate(45)" fill="#19a99f"/></g><g transform="translate(-780.929 -100.929)"><rect width="10" height="10" transform="translate(908 100.929) rotate(45)" fill="#19a99f"/></g><g transform="translate(-750.929 -100.929)"><rect width="10" height="10" transform="translate(908 100.929) rotate(45)" fill="#19a99f"/></g><g transform="translate(-720.929 -100.929)"><rect width="10" height="10" transform="translate(908 100.929) rotate(45)" fill="#19a99f"/></g><g transform="translate(-690.929 -100.929)"><rect width="10" height="10" transform="translate(908 100.929) rotate(45)" fill="#19a99f"/></g><g transform="translate(-660.929 -100.929)"><rect width="10" height="10" transform="translate(908 100.929) rotate(45)" fill="#19a99f"/></g><g transform="translate(-630.929 -100.929)"><rect width="10" height="10" transform="translate(908 100.929) rotate(45)" fill="#19a99f"/></g><g transform="translate(-600.929 -100.929)"><rect width="10" height="10" transform="translate(908 100.929) rotate(45)" fill="#19a99f"/></g><g transform="translate(-570.929 -100.929)"><rect width="10" height="10" transform="translate(908 100.929) rotate(45)" fill="#19a99f"/></g><g transform="translate(-900.929 -75.929)"><rect width="10" height="10" transform="translate(908 100.929) rotate(45)" fill="#19a99f"/></g><g transform="translate(-870.929 -75.929)"><rect width="10" height="10" transform="translate(908 100.929) rotate(45)" fill="#19a99f"/></g><g transform="translate(-840.929 -75.929)"><rect width="10" height="10" transform="translate(908 100.929) rotate(45)" fill="#19a99f"/></g><g transform="translate(-810.929 -75.929)"><rect width="10" height="10" transform="translate(908 100.929) rotate(45)" fill="#19a99f"/></g><g transform="translate(-780.929 -75.929)"><rect width="10" height="10" transform="translate(908 100.929) rotate(45)" fill="#19a99f"/></g><g transform="translate(-750.929 -75.929)"><rect width="10" height="10" transform="translate(908 100.929) rotate(45)" fill="#19a99f"/></g><g transform="translate(-720.929 -75.929)"><rect width="10" height="10" transform="translate(908 100.929) rotate(45)" fill="#19a99f"/></g><g transform="translate(-690.929 -75.929)"><rect width="10" height="10" transform="translate(908 100.929) rotate(45)" fill="#19a99f"/></g><g transform="translate(-660.929 -75.929)"><rect width="10" height="10" transform="translate(908 100.929) rotate(45)" fill="#19a99f"/></g><g transform="translate(-630.929 -75.929)"><rect width="10" height="10" transform="translate(908 100.929) rotate(45)" fill="#19a99f"/></g><g transform="translate(-600.929 -75.929)"><rect width="10" height="10" transform="translate(908 100.929) rotate(45)" fill="#19a99f"/></g><g transform="translate(-570.929 -75.929)"><rect width="10" height="10" transform="translate(908 100.929) rotate(45)" fill="#19a99f"/></g><g transform="translate(-900.929 -50.929)"><rect width="10" height="10" transform="translate(908 100.929) rotate(45)" fill="#19a99f"/></g><g transform="translate(-870.929 -50.929)"><rect width="10" height="10" transform="translate(908 100.929) rotate(45)" fill="#19a99f"/></g><g transform="translate(-840.929 -50.929)"><rect width="10" height="10" transform="translate(908 100.929) rotate(45)" fill="#19a99f"/></g><g transform="translate(-810.929 -50.929)"><rect width="10" height="10" transform="translate(908 100.929) rotate(45)" fill="#19a99f"/></g><g transform="translate(-780.929 -50.929)"><rect width="10" height="10" transform="translate(908 100.929) rotate(45)" fill="#19a99f"/></g><g transform="translate(-750.929 -50.929)"><rect width="10" height="10" transform="translate(908 100.929) rotate(45)" fill="#19a99f"/></g><g transform="translate(-720.929 -50.929)"><rect width="10" height="10" transform="translate(908 100.929) rotate(45)" fill="#19a99f"/></g><g transform="translate(-690.929 -50.929)"><rect width="10" height="10" transform="translate(908 100.929) rotate(45)" fill="#19a99f"/></g><g transform="translate(-660.929 -50.929)"><rect width="10" height="10" transform="translate(908 100.929) rotate(45)" fill="#19a99f"/></g><g transform="translate(-630.929 -50.929)"><rect width="10" height="10" transform="translate(908 100.929) rotate(45)" fill="#19a99f"/></g><g transform="translate(-600.929 -50.929)"><rect width="10" height="10" transform="translate(908 100.929) rotate(45)" fill="#19a99f"/></g><g transform="translate(-570.929 -50.929)"><rect width="10" height="10" transform="translate(908 100.929) rotate(45)" fill="#19a99f"/></g><g transform="translate(-900.929 -25.929)"><rect width="10" height="10" transform="translate(908 100.929) rotate(45)" fill="#19a99f"/></g><g transform="translate(-870.929 -25.929)"><rect width="10" height="10" transform="translate(908 100.929) rotate(45)" fill="#19a99f"/></g><g transform="translate(-840.929 -25.929)"><rect width="10" height="10" transform="translate(908 100.929) rotate(45)" fill="#19a99f"/></g><g transform="translate(-810.929 -25.929)"><rect width="10" height="10" transform="translate(908 100.929) rotate(45)" fill="#19a99f"/></g><g transform="translate(-780.929 -25.929)"><rect width="10" height="10" transform="translate(908 100.929) rotate(45)" fill="#19a99f"/></g><g transform="translate(-750.929 -25.929)"><rect width="10" height="10" transform="translate(908 100.929) rotate(45)" fill="#19a99f"/></g><g transform="translate(-720.929 -25.929)"><rect width="10" height="10" transform="translate(908 100.929) rotate(45)" fill="#19a99f"/></g><g transform="translate(-690.929 -25.929)"><rect width="10" height="10" transform="translate(908 100.929) rotate(45)" fill="#19a99f"/></g><g transform="translate(-660.929 -25.929)"><rect width="10" height="10" transform="translate(908 100.929) rotate(45)" fill="#19a99f"/></g><g transform="translate(-630.929 -25.929)"><rect width="10" height="10" transform="translate(908 100.929) rotate(45)" fill="#19a99f"/></g><g transform="translate(-600.929 -25.929)"><rect width="10" height="10" transform="translate(908 100.929) rotate(45)" fill="#19a99f"/></g><g transform="translate(-570.929 -25.929)"><rect width="10" height="10" transform="translate(908 100.929) rotate(45)" fill="#19a99f"/></g><g transform="translate(-900.929 -0.929)"><rect width="10" height="10" transform="translate(908 100.929) rotate(45)" fill="#19a99f"/></g><g transform="translate(-870.929 -0.929)"><rect width="10" height="10" transform="translate(908 100.929) rotate(45)" fill="#19a99f"/></g><g transform="translate(-840.929 -0.929)"><rect width="10" height="10" transform="translate(908 100.929) rotate(45)" fill="#19a99f"/></g><g transform="translate(-810.929 -0.929)"><rect width="10" height="10" transform="translate(908 100.929) rotate(45)" fill="#19a99f"/></g><g transform="translate(-780.929 -0.929)"><rect width="10" height="10" transform="translate(908 100.929) rotate(45)" fill="#19a99f"/></g><g transform="translate(-750.929 -0.929)"><rect width="10" height="10" transform="translate(908 100.929) rotate(45)" fill="#19a99f"/></g><g transform="translate(-720.929 -0.929)"><rect width="10" height="10" transform="translate(908 100.929) rotate(45)" fill="#19a99f"/></g><g transform="translate(-690.929 -0.929)"><rect width="10" height="10" transform="translate(908 100.929) rotate(45)" fill="#19a99f"/></g><g transform="translate(-660.929 -0.929)"><rect width="10" height="10" transform="translate(908 100.929) rotate(45)" fill="#19a99f"/></g><g transform="translate(-630.929 -0.929)"><rect width="10" height="10" transform="translate(908 100.929) rotate(45)" fill="#19a99f"/></g><g transform="translate(-600.929 -0.929)"><rect width="10" height="10" transform="translate(908 100.929) rotate(45)" fill="#19a99f"/></g><g transform="translate(-570.929 -0.929)"><rect width="10" height="10" transform="translate(908 100.929) rotate(45)" fill="#19a99f"/></g><g transform="translate(-900.929 24.071)"><rect width="10" height="10" transform="translate(908 100.929) rotate(45)" fill="#19a99f"/></g><g transform="translate(-870.929 24.071)"><rect width="10" height="10" transform="translate(908 100.929) rotate(45)" fill="#19a99f"/></g><g transform="translate(-840.929 24.071)"><rect width="10" height="10" transform="translate(908 100.929) rotate(45)" fill="#19a99f"/></g><g transform="translate(-810.929 24.071)"><rect width="10" height="10" transform="translate(908 100.929) rotate(45)" fill="#19a99f"/></g><g transform="translate(-780.929 24.071)"><rect width="10" height="10" transform="translate(908 100.929) rotate(45)" fill="#19a99f"/></g><g transform="translate(-750.929 24.071)"><rect width="10" height="10" transform="translate(908 100.929) rotate(45)" fill="#19a99f"/></g><g transform="translate(-720.929 24.071)"><rect width="10" height="10" transform="translate(908 100.929) rotate(45)" fill="#19a99f"/></g><g transform="translate(-690.929 24.071)"><rect width="10" height="10" transform="translate(908 100.929) rotate(45)" fill="#19a99f"/></g><g transform="translate(-660.929 24.071)"><rect width="10" height="10" transform="translate(908 100.929) rotate(45)" fill="#19a99f"/></g><g transform="translate(-630.929 24.071)"><rect width="10" height="10" transform="translate(908 100.929) rotate(45)" fill="#19a99f"/></g><g transform="translate(-600.929 24.071)"><rect width="10" height="10" transform="translate(908 100.929) rotate(45)" fill="#19a99f"/></g><g transform="translate(-570.929 24.071)"><rect width="10" height="10" transform="translate(908 100.929) rotate(45)" fill="#19a99f"/></g><g transform="translate(-900.929 49.071)"><rect width="10" height="10" transform="translate(908 100.929) rotate(45)" fill="#19a99f"/></g><g transform="translate(-870.929 49.071)"><rect width="10" height="10" transform="translate(908 100.929) rotate(45)" fill="#19a99f"/></g><g transform="translate(-840.929 49.071)"><rect width="10" height="10" transform="translate(908 100.929) rotate(45)" fill="#19a99f"/></g><g transform="translate(-810.929 49.071)"><rect width="10" height="10" transform="translate(908 100.929) rotate(45)" fill="#19a99f"/></g><g transform="translate(-780.929 49.071)"><rect width="10" height="10" transform="translate(908 100.929) rotate(45)" fill="#19a99f"/></g><g transform="translate(-750.929 49.071)"><rect width="10" height="10" transform="translate(908 100.929) rotate(45)" fill="#19a99f"/></g><g transform="translate(-720.929 49.071)"><rect width="10" height="10" transform="translate(908 100.929) rotate(45)" fill="#19a99f"/></g><g transform="translate(-690.929 49.071)"><rect width="10" height="10" transform="translate(908 100.929) rotate(45)" fill="#19a99f"/></g><g transform="translate(-660.929 49.071)"><rect width="10" height="10" transform="translate(908 100.929) rotate(45)" fill="#19a99f"/></g><g transform="translate(-630.929 49.071)"><rect width="10" height="10" transform="translate(908 100.929) rotate(45)" fill="#19a99f"/></g><g transform="translate(-600.929 49.071)"><rect width="10" height="10" transform="translate(908 100.929) rotate(45)" fill="#19a99f"/></g><g transform="translate(-570.929 49.071)"><rect width="10" height="10" transform="translate(908 100.929) rotate(45)" fill="#19a99f"/></g><g transform="translate(-900.929 74.071)"><rect width="10" height="10" transform="translate(908 100.929) rotate(45)" fill="#19a99f"/></g><g transform="translate(-870.929 74.071)"><rect width="10" height="10" transform="translate(908 100.929) rotate(45)" fill="#19a99f"/></g><g transform="translate(-840.929 74.071)"><rect width="10" height="10" transform="translate(908 100.929) rotate(45)" fill="#19a99f"/></g><g transform="translate(-810.929 74.071)"><rect width="10" height="10" transform="translate(908 100.929) rotate(45)" fill="#19a99f"/></g><g transform="translate(-780.929 74.071)"><rect width="10" height="10" transform="translate(908 100.929) rotate(45)" fill="#19a99f"/></g><g transform="translate(-750.929 74.071)"><rect width="10" height="10" transform="translate(908 100.929) rotate(45)" fill="#19a99f"/></g><g transform="translate(-720.929 74.071)"><rect width="10" height="10" transform="translate(908 100.929) rotate(45)" fill="#19a99f"/></g><g transform="translate(-690.929 74.071)"><rect width="10" height="10" transform="translate(908 100.929) rotate(45)" fill="#19a99f"/></g><g transform="translate(-660.929 74.071)"><rect width="10" height="10" transform="translate(908 100.929) rotate(45)" fill="#19a99f"/></g><g transform="translate(-630.929 74.071)"><rect width="10" height="10" transform="translate(908 100.929) rotate(45)" fill="#19a99f"/></g><g transform="translate(-600.929 74.071)"><rect width="10" height="10" transform="translate(908 100.929) rotate(45)" fill="#19a99f"/></g><g transform="translate(-570.929 74.071)"><rect width="10" height="10" transform="translate(908 100.929) rotate(45)" fill="#19a99f"/></g><g transform="translate(-900.929 99.071)"><rect width="10" height="10" transform="translate(908 100.929) rotate(45)" fill="#19a99f"/></g><g transform="translate(-870.929 99.071)"><rect width="10" height="10" transform="translate(908 100.929) rotate(45)" fill="#19a99f"/></g><g transform="translate(-840.929 99.071)"><rect width="10" height="10" transform="translate(908 100.929) rotate(45)" fill="#19a99f"/></g><g transform="translate(-810.929 99.071)"><rect width="10" height="10" transform="translate(908 100.929) rotate(45)" fill="#19a99f"/></g><g transform="translate(-780.929 99.071)"><rect width="10" height="10" transform="translate(908 100.929) rotate(45)" fill="#19a99f"/></g><g transform="translate(-750.929 99.071)"><rect width="10" height="10" transform="translate(908 100.929) rotate(45)" fill="#19a99f"/></g><g transform="translate(-720.929 99.071)"><rect width="10" height="10" transform="translate(908 100.929) rotate(45)" fill="#19a99f"/></g><g transform="translate(-690.929 99.071)"><rect width="10" height="10" transform="translate(908 100.929) rotate(45)" fill="#19a99f"/></g><g transform="translate(-660.929 99.071)"><rect width="10" height="10" transform="translate(908 100.929) rotate(45)" fill="#19a99f"/></g><g transform="translate(-630.929 99.071)"><rect width="10" height="10" transform="translate(908 100.929) rotate(45)" fill="#19a99f"/></g><g transform="translate(-600.929 99.071)"><rect width="10" height="10" transform="translate(908 100.929) rotate(45)" fill="#19a99f"/></g><g transform="translate(-570.929 99.071)"><rect width="10" height="10" transform="translate(908 100.929) rotate(45)" fill="#19a99f"/></g><g transform="translate(-900.929 124.071)"><rect width="10" height="10" transform="translate(908 100.929) rotate(45)" fill="#19a99f"/></g><g transform="translate(-870.929 124.071)"><rect width="10" height="10" transform="translate(908 100.929) rotate(45)" fill="#19a99f"/></g><g transform="translate(-840.929 124.071)"><rect width="10" height="10" transform="translate(908 100.929) rotate(45)" fill="#19a99f"/></g><g transform="translate(-810.929 124.071)"><rect width="10" height="10" transform="translate(908 100.929) rotate(45)" fill="#19a99f"/></g><g transform="translate(-780.929 124.071)"><rect width="10" height="10" transform="translate(908 100.929) rotate(45)" fill="#19a99f"/></g><g transform="translate(-750.929 124.071)"><rect width="10" height="10" transform="translate(908 100.929) rotate(45)" fill="#19a99f"/></g><g transform="translate(-720.929 124.071)"><rect width="10" height="10" transform="translate(908 100.929) rotate(45)" fill="#19a99f"/></g><g transform="translate(-690.929 124.071)"><rect width="10" height="10" transform="translate(908 100.929) rotate(45)" fill="#19a99f"/></g><g transform="translate(-660.929 124.071)"><rect width="10" height="10" transform="translate(908 100.929) rotate(45)" fill="#19a99f"/></g><g transform="translate(-630.929 124.071)"><rect width="10" height="10" transform="translate(908 100.929) rotate(45)" fill="#19a99f"/></g><g transform="translate(-600.929 124.071)"><rect width="10" height="10" transform="translate(908 100.929) rotate(45)" fill="#19a99f"/></g><g transform="translate(-570.929 124.071)"><rect width="10" height="10" transform="translate(908 100.929) rotate(45)" fill="#19a99f"/></g><g transform="translate(-900.929 149.071)"><rect width="10" height="10" transform="translate(908 100.929) rotate(45)" fill="#19a99f"/></g><g transform="translate(-870.929 149.071)"><rect width="10" height="10" transform="translate(908 100.929) rotate(45)" fill="#19a99f"/></g><g transform="translate(-840.929 149.071)"><rect width="10" height="10" transform="translate(908 100.929) rotate(45)" fill="#19a99f"/></g><g transform="translate(-810.929 149.071)"><rect width="10" height="10" transform="translate(908 100.929) rotate(45)" fill="#19a99f"/></g><g transform="translate(-780.929 149.071)"><rect width="10" height="10" transform="translate(908 100.929) rotate(45)" fill="#19a99f"/></g><g transform="translate(-750.929 149.071)"><rect width="10" height="10" transform="translate(908 100.929) rotate(45)" fill="#19a99f"/></g><g transform="translate(-720.929 149.071)"><rect width="10" height="10" transform="translate(908 100.929) rotate(45)" fill="#19a99f"/></g><g transform="translate(-690.929 149.071)"><rect width="10" height="10" transform="translate(908 100.929) rotate(45)" fill="#19a99f"/></g><g transform="translate(-660.929 149.071)"><rect width="10" height="10" transform="translate(908 100.929) rotate(45)" fill="#19a99f"/></g><g transform="translate(-630.929 149.071)"><rect width="10" height="10" transform="translate(908 100.929) rotate(45)" fill="#19a99f"/></g><g transform="translate(-600.929 149.071)"><rect width="10" height="10" transform="translate(908 100.929) rotate(45)" fill="#19a99f"/></g><g transform="translate(-570.929 149.071)"><rect width="10" height="10" transform="translate(908 100.929) rotate(45)" fill="#19a99f"/></g><g transform="translate(-900.929 174.071)"><rect width="10" height="10" transform="translate(908 100.929) rotate(45)" fill="#19a99f"/></g><g transform="translate(-870.929 174.071)"><rect width="10" height="10" transform="translate(908 100.929) rotate(45)" fill="#19a99f"/></g><g transform="translate(-840.929 174.071)"><rect width="10" height="10" transform="translate(908 100.929) rotate(45)" fill="#19a99f"/></g><g transform="translate(-810.929 174.071)"><rect width="10" height="10" transform="translate(908 100.929) rotate(45)" fill="#19a99f"/></g><g transform="translate(-780.929 174.071)"><rect width="10" height="10" transform="translate(908 100.929) rotate(45)" fill="#19a99f"/></g><g transform="translate(-750.929 174.071)"><rect width="10" height="10" transform="translate(908 100.929) rotate(45)" fill="#19a99f"/></g><g transform="translate(-720.929 174.071)"><rect width="10" height="10" transform="translate(908 100.929) rotate(45)" fill="#19a99f"/></g><g transform="translate(-690.929 174.071)"><rect width="10" height="10" transform="translate(908 100.929) rotate(45)" fill="#19a99f"/></g><g transform="translate(-660.929 174.071)"><rect width="10" height="10" transform="translate(908 100.929) rotate(45)" fill="#19a99f"/></g><g transform="translate(-630.929 174.071)"><rect width="10" height="10" transform="translate(908 100.929) rotate(45)" fill="#19a99f"/></g><g transform="translate(-600.929 174.071)"><rect width="10" height="10" transform="translate(908 100.929) rotate(45)" fill="#19a99f"/></g><g transform="translate(-570.929 174.071)"><rect width="10" height="10" transform="translate(908 100.929) rotate(45)" fill="#19a99f"/></g><g transform="translate(-900.929 199.071)"><rect width="10" height="10" transform="translate(908 100.929) rotate(45)" fill="#19a99f"/></g><g transform="translate(-870.929 199.071)"><rect width="10" height="10" transform="translate(908 100.929) rotate(45)" fill="#19a99f"/></g><g transform="translate(-840.929 199.071)"><rect width="10" height="10" transform="translate(908 100.929) rotate(45)" fill="#19a99f"/></g><g transform="translate(-810.929 199.071)"><rect width="10" height="10" transform="translate(908 100.929) rotate(45)" fill="#19a99f"/></g><g transform="translate(-780.929 199.071)"><rect width="10" height="10" transform="translate(908 100.929) rotate(45)" fill="#19a99f"/></g><g transform="translate(-750.929 199.071)"><rect width="10" height="10" transform="translate(908 100.929) rotate(45)" fill="#19a99f"/></g><g transform="translate(-720.929 199.071)"><rect width="10" height="10" transform="translate(908 100.929) rotate(45)" fill="#19a99f"/></g><g transform="translate(-690.929 199.071)"><rect width="10" height="10" transform="translate(908 100.929) rotate(45)" fill="#19a99f"/></g><g transform="translate(-660.929 199.071)"><rect width="10" height="10" transform="translate(908 100.929) rotate(45)" fill="#19a99f"/></g><g transform="translate(-630.929 199.071)"><rect width="10" height="10" transform="translate(908 100.929) rotate(45)" fill="#19a99f"/></g><g transform="translate(-600.929 199.071)"><rect width="10" height="10" transform="translate(908 100.929) rotate(45)" fill="#19a99f"/></g><g transform="translate(-570.929 199.071)"><rect width="10" height="10" transform="translate(908 100.929) rotate(45)" fill="#19a99f"/></g><g transform="translate(-900.929 224.071)"><rect width="10" height="10" transform="translate(908 100.929) rotate(45)" fill="#19a99f"/></g><g transform="translate(-870.929 224.071)"><rect width="10" height="10" transform="translate(908 100.929) rotate(45)" fill="#19a99f"/></g><g transform="translate(-840.929 224.071)"><rect width="10" height="10" transform="translate(908 100.929) rotate(45)" fill="#19a99f"/></g><g transform="translate(-810.929 224.071)"><rect width="10" height="10" transform="translate(908 100.929) rotate(45)" fill="#19a99f"/></g><g transform="translate(-780.929 224.071)"><rect width="10" height="10" transform="translate(908 100.929) rotate(45)" fill="#19a99f"/></g><g transform="translate(-750.929 224.071)"><rect width="10" height="10" transform="translate(908 100.929) rotate(45)" fill="#19a99f"/></g><g transform="translate(-720.929 224.071)"><rect width="10" height="10" transform="translate(908 100.929) rotate(45)" fill="#19a99f"/></g><g transform="translate(-690.929 224.071)"><rect width="10" height="10" transform="translate(908 100.929) rotate(45)" fill="#19a99f"/></g><g transform="translate(-660.929 224.071)"><rect width="10" height="10" transform="translate(908 100.929) rotate(45)" fill="#19a99f"/></g><g transform="translate(-630.929 224.071)"><rect width="10" height="10" transform="translate(908 100.929) rotate(45)" fill="#19a99f"/></g><g transform="translate(-600.929 224.071)"><rect width="10" height="10" transform="translate(908 100.929) rotate(45)" fill="#19a99f"/></g><g transform="translate(-570.929 224.071)"><rect width="10" height="10" transform="translate(908 100.929) rotate(45)" fill="#19a99f"/></g><g transform="translate(-900.929 249.071)"><rect width="10" height="10" transform="translate(908 100.929) rotate(45)" fill="#19a99f"/></g><g transform="translate(-870.929 249.071)"><rect width="10" height="10" transform="translate(908 100.929) rotate(45)" fill="#19a99f"/></g><g transform="translate(-840.929 249.071)"><rect width="10" height="10" transform="translate(908 100.929) rotate(45)" fill="#19a99f"/></g><g transform="translate(-810.929 249.071)"><rect width="10" height="10" transform="translate(908 100.929) rotate(45)" fill="#19a99f"/></g><g transform="translate(-780.929 249.071)"><rect width="10" height="10" transform="translate(908 100.929) rotate(45)" fill="#19a99f"/></g><g transform="translate(-750.929 249.071)"><rect width="10" height="10" transform="translate(908 100.929) rotate(45)" fill="#19a99f"/></g><g transform="translate(-720.929 249.071)"><rect width="10" height="10" transform="translate(908 100.929) rotate(45)" fill="#19a99f"/></g><g transform="translate(-690.929 249.071)"><rect width="10" height="10" transform="translate(908 100.929) rotate(45)" fill="#19a99f"/></g><g transform="translate(-660.929 249.071)"><rect width="10" height="10" transform="translate(908 100.929) rotate(45)" fill="#19a99f"/></g><g transform="translate(-630.929 249.071)"><rect width="10" height="10" transform="translate(908 100.929) rotate(45)" fill="#19a99f"/></g><g transform="translate(-600.929 249.071)"><rect width="10" height="10" transform="translate(908 100.929) rotate(45)" fill="#19a99f"/></g><g transform="translate(-570.929 249.071)"><rect width="10" height="10" transform="translate(908 100.929) rotate(45)" fill="#19a99f"/></g></g></g><g transform="translate(-160 559)" clip-path="url(#d)"><g transform="translate(-643 -825)"><circle cx="13" cy="13" r="13" transform="translate(656 838)" fill="#eee"/></g><g transform="translate(-525 -825)"><circle cx="13" cy="13" r="13" transform="translate(656 838)" fill="#eee"/></g><g transform="translate(-407 -825)"><circle cx="13" cy="13" r="13" transform="translate(656 838)" fill="#eee"/></g><g transform="translate(-289 -825)"><circle cx="13" cy="13" r="13" transform="translate(656 838)" fill="#eee"/></g><g transform="translate(-171 -825)"><circle cx="13" cy="13" r="13" transform="translate(656 838)" fill="#eee"/></g><g transform="translate(-53 -825)"><circle cx="13" cy="13" r="13" transform="translate(656 838)" fill="#eee"/></g><g transform="translate(65 -825)"><circle cx="13" cy="13" r="13" transform="translate(656 838)" fill="#eee"/></g><g transform="translate(-643 -689)"><circle cx="13" cy="13" r="13" transform="translate(656 838)" fill="#eee"/></g><g transform="translate(-525 -689)"><circle cx="13" cy="13" r="13" transform="translate(656 838)" fill="#eee"/></g><g transform="translate(-407 -689)"><circle cx="13" cy="13" r="13" transform="translate(656 838)" fill="#eee"/></g><g transform="translate(-289 -689)"><circle cx="13" cy="13" r="13" transform="translate(656 838)" fill="#eee"/></g><g transform="translate(-171 -689)"><circle cx="13" cy="13" r="13" transform="translate(656 838)" fill="#eee"/></g><g transform="translate(-53 -689)"><circle cx="13" cy="13" r="13" transform="translate(656 838)" fill="#eee"/></g><g transform="translate(65 -689)"><circle cx="13" cy="13" r="13" transform="translate(656 838)" fill="#eee"/></g><g transform="translate(-643 -553)"><circle cx="13" cy="13" r="13" transform="translate(656 838)" fill="#eee"/></g><g transform="translate(-525 -553)"><circle cx="13" cy="13" r="13" transform="translate(656 838)" fill="#eee"/></g><g transform="translate(-407 -553)"><circle cx="13" cy="13" r="13" transform="translate(656 838)" fill="#eee"/></g><g transform="translate(-289 -553)"><circle cx="13" cy="13" r="13" transform="translate(656 838)" fill="#eee"/></g><g transform="translate(-171 -553)"><circle cx="13" cy="13" r="13" transform="translate(656 838)" fill="#eee"/></g><g transform="translate(-53 -553)"><circle cx="13" cy="13" r="13" transform="translate(656 838)" fill="#eee"/></g><g transform="translate(65 -553)"><circle cx="13" cy="13" r="13" transform="translate(656 838)" fill="#eee"/></g><g transform="translate(-643 -417)"><circle cx="13" cy="13" r="13" transform="translate(656 838)" fill="#eee"/></g><g transform="translate(-525 -417)"><circle cx="13" cy="13" r="13" transform="translate(656 838)" fill="#eee"/></g><g transform="translate(-407 -417)"><circle cx="13" cy="13" r="13" transform="translate(656 838)" fill="#eee"/></g><g transform="translate(-289 -417)"><circle cx="13" cy="13" r="13" transform="translate(656 838)" fill="#eee"/></g><g transform="translate(-171 -417)"><circle cx="13" cy="13" r="13" transform="translate(656 838)" fill="#eee"/></g><g transform="translate(-53 -417)"><circle cx="13" cy="13" r="13" transform="translate(656 838)" fill="#eee"/></g><g transform="translate(65 -417)"><circle cx="13" cy="13" r="13" transform="translate(656 838)" fill="#eee"/></g><g transform="translate(-643 -281)"><circle cx="13" cy="13" r="13" transform="translate(656 838)" fill="#eee"/></g><g transform="translate(-525 -281)"><circle cx="13" cy="13" r="13" transform="translate(656 838)" fill="#eee"/></g><g transform="translate(-407 -281)"><circle cx="13" cy="13" r="13" transform="translate(656 838)" fill="#eee"/></g><g transform="translate(-289 -281)"><circle cx="13" cy="13" r="13" transform="translate(656 838)" fill="#eee"/></g><g transform="translate(-171 -281)"><circle cx="13" cy="13" r="13" transform="translate(656 838)" fill="#eee"/></g><g transform="translate(-53 -281)"><circle cx="13" cy="13" r="13" transform="translate(656 838)" fill="#eee"/></g><g transform="translate(65 -281)"><circle cx="13" cy="13" r="13" transform="translate(656 838)" fill="#eee"/></g><g transform="translate(-643 -145)"><circle cx="13" cy="13" r="13" transform="translate(656 838)" fill="#eee"/></g><g transform="translate(-525 -145)"><circle cx="13" cy="13" r="13" transform="translate(656 838)" fill="#eee"/></g><g transform="translate(-407 -145)"><circle cx="13" cy="13" r="13" transform="translate(656 838)" fill="#eee"/></g><g transform="translate(-289 -145)"><circle cx="13" cy="13" r="13" transform="translate(656 838)" fill="#eee"/></g><g transform="translate(-171 -145)"><circle cx="13" cy="13" r="13" transform="translate(656 838)" fill="#eee"/></g><g transform="translate(-53 -145)"><circle cx="13" cy="13" r="13" transform="translate(656 838)" fill="#eee"/></g><g transform="translate(65 -145)"><circle cx="13" cy="13" r="13" transform="translate(656 838)" fill="#eee"/></g><g transform="translate(-643 -9)"><circle cx="13" cy="13" r="13" transform="translate(656 838)" fill="#eee"/></g><g transform="translate(-525 -9)"><circle cx="13" cy="13" r="13" transform="translate(656 838)" fill="#eee"/></g><g transform="translate(-407 -9)"><circle cx="13" cy="13" r="13" transform="translate(656 838)" fill="#eee"/></g><g transform="translate(-289 -9)"><circle cx="13" cy="13" r="13" transform="translate(656 838)" fill="#eee"/></g><g transform="translate(-171 -9)"><circle cx="13" cy="13" r="13" transform="translate(656 838)" fill="#eee"/></g><g transform="translate(-53 -9)"><circle cx="13" cy="13" r="13" transform="translate(656 838)" fill="#eee"/></g><g transform="translate(65 -9)"><circle cx="13" cy="13" r="13" transform="translate(656 838)" fill="#eee"/></g></g><circle cx="83" cy="83" r="83" transform="translate(1186 708)" fill="#19a99f"/><g transform="translate(-67.215 90.206) rotate(-3)" style="isolation:isolate"><g transform="translate(990 737)"><path d="M130.189,0l43.4,27Zm0,0-43.4,27ZM43.4,0l43.4,27Zm0,0L0,27Z" fill="none" stroke="#fff" stroke-width="4"/><path d="M130.189,0l43.4,27Zm0,0-43.4,27ZM43.4,0l43.4,27Zm0,0L0,27Z" transform="translate(173.585)" fill="none" stroke="#fff" stroke-width="4"/><path d="M130.189,0l43.4,27Zm0,0-43.4,27ZM43.4,0l43.4,27Zm0,0L0,27Z" transform="translate(347.17)" fill="none" stroke="#fff" stroke-width="4"/><path d="M130.189,0l43.4,27Zm0,0-43.4,27ZM43.4,0l43.4,27Zm0,0L0,27Z" transform="translate(520.755)" fill="none" stroke="#fff" stroke-width="4"/></g><g transform="translate(1072.66 761)"><path d="M130.189,0l43.4,27Zm0,0-43.4,27ZM43.4,0l43.4,27Zm0,0L0,27Z" transform="translate(0)" fill="none" stroke="#fff" stroke-width="4"/><path d="M130.189,0l43.4,27Zm0,0-43.4,27ZM43.4,0l43.4,27Zm0,0L0,27Z" transform="translate(173.585)" fill="none" stroke="#fff" stroke-width="4"/><path d="M130.189,0l43.4,27Zm0,0-43.4,27ZM43.4,0l43.4,27Zm0,0L0,27Z" transform="translate(347.17)" fill="none" stroke="#fff" stroke-width="4"/><path d="M130.189,0l43.4,27Zm0,0-43.4,27ZM43.4,0l43.4,27Zm0,0L0,27Z" transform="translate(520.755)" fill="none" stroke="#fff" stroke-width="4"/></g><g transform="translate(990 784)"><path d="M130.189,0l43.4,27Zm0,0-43.4,27ZM43.4,0l43.4,27Zm0,0L0,27Z" fill="none" stroke="#fff" stroke-width="4"/><path d="M130.189,0l43.4,27Zm0,0-43.4,27ZM43.4,0l43.4,27Zm0,0L0,27Z" transform="translate(173.585)" fill="none" stroke="#fff" stroke-width="4"/><path d="M130.189,0l43.4,27Zm0,0-43.4,27ZM43.4,0l43.4,27Zm0,0L0,27Z" transform="translate(347.17)" fill="none" stroke="#fff" stroke-width="4"/><path d="M130.189,0l43.4,27Zm0,0-43.4,27ZM43.4,0l43.4,27Zm0,0L0,27Z" transform="translate(520.755)" fill="none" stroke="#fff" stroke-width="4"/></g></g></g></svg>