<?xml version="1.0" standalone="no"?>
<svg viewBox="0 0 200 200" xmlns="http://www.w3.org/2000/svg">
  <path fill="#5faaa5" d="M42,-71.8C55.7,-64.8,69,-56.1,75.1,-43.9C81.3,-31.7,80.5,-15.8,78.5,-1.1C76.5,13.5,73.5,27.1,68.4,41.4C63.4,55.7,56.5,70.7,44.7,77C33,83.3,16.5,80.8,1.7,78C-13.2,75.1,-26.4,71.8,-39.1,66.1C-51.9,60.4,-64.1,52.3,-73.2,40.8C-82.3,29.4,-88.3,14.7,-87.7,0.3C-87.1,-14,-80,-28,-71.2,-40C-62.4,-52,-51.9,-61.9,-39.8,-69.8C-27.6,-77.7,-13.8,-83.6,0.2,-83.9C14.1,-84.2,28.3,-78.8,42,-71.8Z" transform="translate(100 100)" />
</svg>
