<svg xmlns="http://www.w3.org/2000/svg" width="24" height="24" viewBox="0 0 24 24"><g transform="translate(-108 -380)"><path d="M0,0H24V24H0Z" transform="translate(132 404) rotate(180)" fill="none" opacity="0"/><g transform="translate(110.01 382)" fill="#fff"><path d="M 14.1799955368042 19.4899959564209 L 5.809995174407959 19.4899959564209 C 4.159504890441895 19.4899959564209 2.805225133895874 19.00811576843262 1.893555164337158 18.09644508361816 C 0.9818851351737976 17.18477439880371 0.5000051259994507 15.83048534393311 0.5000051259994507 14.1799955368042 L 0.5000051259994507 5.809995174407959 C 0.5000051259994507 4.159504890441895 0.9818851351737976 2.805225133895874 1.893555164337158 1.893555164337158 C 2.805225133895874 0.9818851351737976 4.159504890441895 0.5000051259994507 5.809995174407959 0.5000051259994507 L 14.1799955368042 0.5000051259994507 C 15.83048534393311 0.5000051259994507 17.18477439880371 0.9818851351737976 18.09644508361816 1.893555164337158 C 19.00811576843262 2.805225133895874 19.4899959564209 4.159504890441895 19.4899959564209 5.809995174407959 L 19.4899959564209 14.1799955368042 C 19.4899959564209 15.83048534393311 19.00811576843262 17.18477439880371 18.09644508361816 18.09644508361816 C 17.18477439880371 19.00811576843262 15.83048534393311 19.4899959564209 14.1799955368042 19.4899959564209 Z" stroke="none"/><path d="M 5.809994697570801 0.9999942779541016 C 4.294995307922363 0.9999942779541016 3.062965393066406 1.431234359741211 2.247104644775391 2.247104644775391 C 1.431234359741211 3.062965393066406 0.9999942779541016 4.294995307922363 0.9999942779541016 5.809994697570801 L 0.9999942779541016 14.17999458312988 C 0.9999942779541016 15.69499492645264 1.431234359741211 16.92702484130859 2.247104644775391 17.74288558959961 C 3.062965393066406 18.55874443054199 4.294995307922363 18.9899845123291 5.809994697570801 18.9899845123291 L 14.17999458312988 18.9899845123291 C 15.69499492645264 18.9899845123291 16.92702484130859 18.55874443054199 17.74288558959961 17.74288558959961 C 18.55874443054199 16.92702484130859 18.9899845123291 15.69499492645264 18.9899845123291 14.17999458312988 L 18.9899845123291 5.809994697570801 C 18.9899845123291 4.294995307922363 18.55874443054199 3.062965393066406 17.74288558959961 2.247104644775391 C 16.92702484130859 1.431234359741211 15.69499492645264 0.9999942779541016 14.17999458312988 0.9999942779541016 L 5.809994697570801 0.9999942779541016 M 5.809994697570801 -5.7220458984375e-06 L 14.17999458312988 -5.7220458984375e-06 C 17.81999588012695 -5.7220458984375e-06 19.9899845123291 2.169994354248047 19.9899845123291 5.809994697570801 L 19.9899845123291 14.17999458312988 C 19.9899845123291 17.81999588012695 17.81999588012695 19.9899845123291 14.17999458312988 19.9899845123291 L 5.809994697570801 19.9899845123291 C 2.169994354248047 19.9899845123291 -5.7220458984375e-06 17.81999588012695 -5.7220458984375e-06 14.17999458312988 L -5.7220458984375e-06 5.809994697570801 C -5.7220458984375e-06 2.169994354248047 2.169994354248047 -5.7220458984375e-06 5.809994697570801 -5.7220458984375e-06 Z" stroke="none" fill="#19a99f"/></g><path d="M10.76,9.45A4.788,4.788,0,0,1,7.2,7.74,8.526,8.526,0,0,0,8.97,3.18h1.78a.75.75,0,0,0,0-1.5H8.32c-.02,0-.04-.01-.06-.01s-.04.01-.06.01H6.51V.75a.75.75,0,0,0-1.5,0v.93H.77a.75.75,0,0,0,0,1.5H7.46A6.867,6.867,0,0,1,.75,9.45a.75.75,0,0,0,0,1.5A8.044,8.044,0,0,0,6.16,8.84a6.256,6.256,0,0,0,4.59,2.11.755.755,0,0,0,.75-.75A.747.747,0,0,0,10.76,9.45Z" transform="translate(114.24 386.52)" fill="#19a99f"/></g></svg>